<mxfile host="app.diagrams.net" modified="2024-03-05T14:14:43.053Z" agent="Mozilla/5.0 (Windows NT 10.0; Win64; x64) AppleWebKit/537.36 (KHTML, like Gecko) Chrome/122.0.0.0 Safari/537.36" etag="BcQKQHG0vf8sVHu7uKvq" version="23.1.6" type="device">
  <diagram name="Pagina-1" id="wNKCJc2ML13nljG5a95H">
    <mxGraphModel dx="2876" dy="2338" grid="1" gridSize="10" guides="1" tooltips="1" connect="1" arrows="1" fold="1" page="1" pageScale="1" pageWidth="827" pageHeight="1169" math="0" shadow="0">
      <root>
        <mxCell id="0" />
        <mxCell id="1" parent="0" />
        <mxCell id="vGmPtLtx-GYa7RqPM0eq-1" value="" style="rounded=0;whiteSpace=wrap;html=1;" vertex="1" parent="1">
          <mxGeometry x="180" y="20" width="290" height="170" as="geometry" />
        </mxCell>
        <mxCell id="vGmPtLtx-GYa7RqPM0eq-4" style="edgeStyle=orthogonalEdgeStyle;rounded=0;orthogonalLoop=1;jettySize=auto;html=1;fillColor=#d5e8d4;strokeColor=#82b366;" edge="1" parent="1" source="vGmPtLtx-GYa7RqPM0eq-3">
          <mxGeometry relative="1" as="geometry">
            <mxPoint x="320" as="targetPoint" />
          </mxGeometry>
        </mxCell>
        <mxCell id="vGmPtLtx-GYa7RqPM0eq-3" value="START." style="ellipse;whiteSpace=wrap;html=1;fillColor=#d5e8d4;strokeColor=#82b366;" vertex="1" parent="1">
          <mxGeometry x="260" y="-200" width="120" height="80" as="geometry" />
        </mxCell>
        <mxCell id="vGmPtLtx-GYa7RqPM0eq-9" style="edgeStyle=orthogonalEdgeStyle;rounded=0;orthogonalLoop=1;jettySize=auto;html=1;fillColor=#d5e8d4;strokeColor=#82b366;" edge="1" parent="1" source="vGmPtLtx-GYa7RqPM0eq-6">
          <mxGeometry relative="1" as="geometry">
            <mxPoint x="530" y="-60" as="targetPoint" />
          </mxGeometry>
        </mxCell>
        <mxCell id="vGmPtLtx-GYa7RqPM0eq-6" value="Load game" style="rounded=1;whiteSpace=wrap;html=1;" vertex="1" parent="1">
          <mxGeometry x="230" y="70" width="180" height="30" as="geometry" />
        </mxCell>
        <mxCell id="vGmPtLtx-GYa7RqPM0eq-7" value="Settings &amp;amp; Controls" style="rounded=1;whiteSpace=wrap;html=1;" vertex="1" parent="1">
          <mxGeometry x="230" y="150" width="180" height="30" as="geometry" />
        </mxCell>
        <mxCell id="vGmPtLtx-GYa7RqPM0eq-35" style="edgeStyle=orthogonalEdgeStyle;rounded=0;orthogonalLoop=1;jettySize=auto;html=1;fillColor=#d5e8d4;strokeColor=#82b366;" edge="1" parent="1" source="vGmPtLtx-GYa7RqPM0eq-8">
          <mxGeometry relative="1" as="geometry">
            <mxPoint x="200" y="270" as="targetPoint" />
          </mxGeometry>
        </mxCell>
        <mxCell id="vGmPtLtx-GYa7RqPM0eq-8" value="New game" style="rounded=1;whiteSpace=wrap;html=1;" vertex="1" parent="1">
          <mxGeometry x="230" y="110" width="180" height="30" as="geometry" />
        </mxCell>
        <mxCell id="vGmPtLtx-GYa7RqPM0eq-10" value="" style="rounded=0;whiteSpace=wrap;html=1;" vertex="1" parent="1">
          <mxGeometry x="420" y="-250" width="290" height="170" as="geometry" />
        </mxCell>
        <mxCell id="vGmPtLtx-GYa7RqPM0eq-11" value="&lt;font style=&quot;font-size: 21px;&quot;&gt;Spacegod&#39;s Temple&lt;/font&gt;" style="text;html=1;align=center;verticalAlign=middle;whiteSpace=wrap;rounded=0;" vertex="1" parent="1">
          <mxGeometry x="215" y="20" width="210" height="50" as="geometry" />
        </mxCell>
        <mxCell id="vGmPtLtx-GYa7RqPM0eq-12" value="Save 1" style="rounded=1;whiteSpace=wrap;html=1;" vertex="1" parent="1">
          <mxGeometry x="470" y="-240" width="180" height="30" as="geometry" />
        </mxCell>
        <mxCell id="vGmPtLtx-GYa7RqPM0eq-13" value="Save 2" style="rounded=1;whiteSpace=wrap;html=1;" vertex="1" parent="1">
          <mxGeometry x="470" y="-200" width="180" height="30" as="geometry" />
        </mxCell>
        <mxCell id="vGmPtLtx-GYa7RqPM0eq-14" value="Save 3" style="rounded=1;whiteSpace=wrap;html=1;" vertex="1" parent="1">
          <mxGeometry x="470" y="-160" width="180" height="30" as="geometry" />
        </mxCell>
        <mxCell id="vGmPtLtx-GYa7RqPM0eq-16" value="Load" style="rounded=1;whiteSpace=wrap;html=1;fillColor=#d5e8d4;strokeColor=#82b366;" vertex="1" parent="1">
          <mxGeometry x="440" y="-120" width="70" height="20" as="geometry" />
        </mxCell>
        <mxCell id="vGmPtLtx-GYa7RqPM0eq-18" value="Load game" style="text;html=1;align=center;verticalAlign=middle;whiteSpace=wrap;rounded=0;" vertex="1" parent="1">
          <mxGeometry x="535" y="-290" width="60" height="30" as="geometry" />
        </mxCell>
        <mxCell id="vGmPtLtx-GYa7RqPM0eq-19" value="Startscherm" style="text;html=1;align=center;verticalAlign=middle;whiteSpace=wrap;rounded=0;" vertex="1" parent="1">
          <mxGeometry x="110" y="50" width="60" height="30" as="geometry" />
        </mxCell>
        <mxCell id="vGmPtLtx-GYa7RqPM0eq-20" value="Rename" style="rounded=1;whiteSpace=wrap;html=1;fillColor=#dae8fc;strokeColor=#6c8ebf;" vertex="1" parent="1">
          <mxGeometry x="530" y="-120" width="70" height="20" as="geometry" />
        </mxCell>
        <mxCell id="vGmPtLtx-GYa7RqPM0eq-25" style="edgeStyle=orthogonalEdgeStyle;rounded=0;orthogonalLoop=1;jettySize=auto;html=1;entryX=1;entryY=0.5;entryDx=0;entryDy=0;fillColor=#f8cecc;strokeColor=#b85450;" edge="1" parent="1" source="vGmPtLtx-GYa7RqPM0eq-21" target="vGmPtLtx-GYa7RqPM0eq-1">
          <mxGeometry relative="1" as="geometry">
            <Array as="points">
              <mxPoint x="655" y="30" />
              <mxPoint x="545" y="30" />
              <mxPoint x="545" y="105" />
            </Array>
          </mxGeometry>
        </mxCell>
        <mxCell id="vGmPtLtx-GYa7RqPM0eq-21" value="Back" style="rounded=1;whiteSpace=wrap;html=1;fillColor=#f8cecc;strokeColor=#b85450;" vertex="1" parent="1">
          <mxGeometry x="620" y="-120" width="70" height="20" as="geometry" />
        </mxCell>
        <mxCell id="vGmPtLtx-GYa7RqPM0eq-38" style="edgeStyle=orthogonalEdgeStyle;rounded=0;orthogonalLoop=1;jettySize=auto;html=1;fillColor=#d5e8d4;strokeColor=#82b366;" edge="1" parent="1" source="vGmPtLtx-GYa7RqPM0eq-27">
          <mxGeometry relative="1" as="geometry">
            <mxPoint x="325" y="520" as="targetPoint" />
          </mxGeometry>
        </mxCell>
        <mxCell id="vGmPtLtx-GYa7RqPM0eq-27" value="" style="rounded=0;whiteSpace=wrap;html=1;" vertex="1" parent="1">
          <mxGeometry x="180" y="290" width="290" height="170" as="geometry" />
        </mxCell>
        <mxCell id="vGmPtLtx-GYa7RqPM0eq-28" value="Cutscene" style="text;html=1;align=center;verticalAlign=middle;whiteSpace=wrap;rounded=0;" vertex="1" parent="1">
          <mxGeometry x="70" y="320" width="60" height="30" as="geometry" />
        </mxCell>
        <mxCell id="vGmPtLtx-GYa7RqPM0eq-33" value="Zoom in &amp;amp; fade" style="text;html=1;align=center;verticalAlign=middle;whiteSpace=wrap;rounded=0;" vertex="1" parent="1">
          <mxGeometry x="240" y="350" width="160" height="30" as="geometry" />
        </mxCell>
        <mxCell id="vGmPtLtx-GYa7RqPM0eq-34" style="edgeStyle=orthogonalEdgeStyle;rounded=0;orthogonalLoop=1;jettySize=auto;html=1;entryX=1.003;entryY=0.465;entryDx=0;entryDy=0;entryPerimeter=0;fillColor=#d5e8d4;strokeColor=#82b366;" edge="1" parent="1" source="vGmPtLtx-GYa7RqPM0eq-16" target="vGmPtLtx-GYa7RqPM0eq-27">
          <mxGeometry relative="1" as="geometry">
            <Array as="points">
              <mxPoint x="500" y="200" />
              <mxPoint x="490" y="200" />
              <mxPoint x="490" y="369" />
            </Array>
          </mxGeometry>
        </mxCell>
        <mxCell id="vGmPtLtx-GYa7RqPM0eq-36" value="" style="rounded=0;whiteSpace=wrap;html=1;" vertex="1" parent="1">
          <mxGeometry x="180" y="530" width="290" height="170" as="geometry" />
        </mxCell>
        <mxCell id="vGmPtLtx-GYa7RqPM0eq-37" value="Main world" style="text;html=1;align=center;verticalAlign=middle;whiteSpace=wrap;rounded=0;" vertex="1" parent="1">
          <mxGeometry x="215" y="555" width="60" height="30" as="geometry" />
        </mxCell>
        <mxCell id="vGmPtLtx-GYa7RqPM0eq-39" value="" style="rounded=0;whiteSpace=wrap;html=1;" vertex="1" parent="1">
          <mxGeometry x="480" y="790" width="290" height="170" as="geometry" />
        </mxCell>
        <mxCell id="vGmPtLtx-GYa7RqPM0eq-42" value="Player enters / exists&amp;nbsp; temple one" style="text;html=1;align=center;verticalAlign=middle;whiteSpace=wrap;rounded=0;" vertex="1" parent="1">
          <mxGeometry x="460" y="730" width="60" height="30" as="geometry" />
        </mxCell>
        <mxCell id="vGmPtLtx-GYa7RqPM0eq-44" value="" style="endArrow=classic;startArrow=classic;html=1;rounded=0;fillColor=#dae8fc;strokeColor=#6c8ebf;" edge="1" parent="1">
          <mxGeometry width="50" height="50" relative="1" as="geometry">
            <mxPoint x="460" y="790" as="sourcePoint" />
            <mxPoint x="430" y="720" as="targetPoint" />
          </mxGeometry>
        </mxCell>
        <mxCell id="vGmPtLtx-GYa7RqPM0eq-45" value="" style="endArrow=classic;startArrow=classic;html=1;rounded=0;fillColor=#dae8fc;strokeColor=#6c8ebf;" edge="1" parent="1">
          <mxGeometry width="50" height="50" relative="1" as="geometry">
            <mxPoint x="310" y="810" as="sourcePoint" />
            <mxPoint x="310" y="730" as="targetPoint" />
          </mxGeometry>
        </mxCell>
        <mxCell id="vGmPtLtx-GYa7RqPM0eq-46" value="" style="rounded=0;whiteSpace=wrap;html=1;" vertex="1" parent="1">
          <mxGeometry x="135" y="840" width="290" height="170" as="geometry" />
        </mxCell>
        <mxCell id="vGmPtLtx-GYa7RqPM0eq-47" value="Player enters / exists&amp;nbsp; temple Two" style="text;html=1;align=center;verticalAlign=middle;whiteSpace=wrap;rounded=0;" vertex="1" parent="1">
          <mxGeometry x="320" y="760" width="60" height="30" as="geometry" />
        </mxCell>
        <mxCell id="vGmPtLtx-GYa7RqPM0eq-48" value="Player enters / exists&amp;nbsp; temple three&lt;div&gt;&lt;br/&gt;&lt;/div&gt;" style="text;html=1;align=center;verticalAlign=middle;whiteSpace=wrap;rounded=0;" vertex="1" parent="1">
          <mxGeometry x="580" y="570" width="60" height="30" as="geometry" />
        </mxCell>
        <mxCell id="vGmPtLtx-GYa7RqPM0eq-49" value="" style="rounded=0;whiteSpace=wrap;html=1;" vertex="1" parent="1">
          <mxGeometry x="680" y="580" width="290" height="170" as="geometry" />
        </mxCell>
        <mxCell id="vGmPtLtx-GYa7RqPM0eq-50" value="" style="endArrow=classic;startArrow=classic;html=1;rounded=0;fillColor=#dae8fc;strokeColor=#6c8ebf;" edge="1" parent="1">
          <mxGeometry width="50" height="50" relative="1" as="geometry">
            <mxPoint x="630" y="660" as="sourcePoint" />
            <mxPoint x="530" y="640" as="targetPoint" />
          </mxGeometry>
        </mxCell>
        <mxCell id="vGmPtLtx-GYa7RqPM0eq-51" value="" style="rounded=0;whiteSpace=wrap;html=1;" vertex="1" parent="1">
          <mxGeometry x="-220" y="700" width="290" height="170" as="geometry" />
        </mxCell>
        <mxCell id="vGmPtLtx-GYa7RqPM0eq-52" value="" style="endArrow=classic;startArrow=classic;html=1;rounded=0;fillColor=#dae8fc;strokeColor=#6c8ebf;" edge="1" parent="1">
          <mxGeometry width="50" height="50" relative="1" as="geometry">
            <mxPoint x="90" y="760" as="sourcePoint" />
            <mxPoint x="150" y="700" as="targetPoint" />
          </mxGeometry>
        </mxCell>
        <mxCell id="vGmPtLtx-GYa7RqPM0eq-53" value="Player enters / exists&amp;nbsp; temple four" style="text;html=1;align=center;verticalAlign=middle;whiteSpace=wrap;rounded=0;" vertex="1" parent="1">
          <mxGeometry x="80" y="670" width="60" height="30" as="geometry" />
        </mxCell>
        <mxCell id="vGmPtLtx-GYa7RqPM0eq-55" value="" style="rounded=0;whiteSpace=wrap;html=1;" vertex="1" parent="1">
          <mxGeometry x="600" y="250" width="290" height="170" as="geometry" />
        </mxCell>
        <mxCell id="vGmPtLtx-GYa7RqPM0eq-56" value="Inventory menu" style="text;html=1;align=center;verticalAlign=middle;whiteSpace=wrap;rounded=0;" vertex="1" parent="1">
          <mxGeometry x="580" y="190" width="60" height="30" as="geometry" />
        </mxCell>
        <mxCell id="vGmPtLtx-GYa7RqPM0eq-57" value="item1" style="rounded=0;whiteSpace=wrap;html=1;" vertex="1" parent="1">
          <mxGeometry x="645" y="270" width="200" height="30" as="geometry" />
        </mxCell>
        <mxCell id="vGmPtLtx-GYa7RqPM0eq-58" value="" style="rounded=0;whiteSpace=wrap;html=1;strokeColor=#ADADAD;" vertex="1" parent="1">
          <mxGeometry x="860" y="260" width="10" height="150" as="geometry" />
        </mxCell>
        <mxCell id="vGmPtLtx-GYa7RqPM0eq-60" value="" style="rounded=1;whiteSpace=wrap;html=1;fillColor=#f5f5f5;strokeColor=#666666;gradientColor=#b3b3b3;" vertex="1" parent="1">
          <mxGeometry x="857.5" y="300" width="15" height="30" as="geometry" />
        </mxCell>
        <mxCell id="vGmPtLtx-GYa7RqPM0eq-64" value="item1" style="rounded=0;whiteSpace=wrap;html=1;" vertex="1" parent="1">
          <mxGeometry x="645" y="310" width="200" height="30" as="geometry" />
        </mxCell>
        <mxCell id="vGmPtLtx-GYa7RqPM0eq-65" value="item1" style="rounded=0;whiteSpace=wrap;html=1;" vertex="1" parent="1">
          <mxGeometry x="645" y="350" width="200" height="30" as="geometry" />
        </mxCell>
        <mxCell id="vGmPtLtx-GYa7RqPM0eq-66" value="Exit" style="rounded=0;whiteSpace=wrap;html=1;fillColor=#f8cecc;strokeColor=#b85450;" vertex="1" parent="1">
          <mxGeometry x="710" y="390" width="70" height="20" as="geometry" />
        </mxCell>
        <mxCell id="vGmPtLtx-GYa7RqPM0eq-69" value="" style="endArrow=classic;startArrow=classic;html=1;rounded=0;fillColor=#d5e8d4;strokeColor=#82b366;" edge="1" parent="1">
          <mxGeometry width="50" height="50" relative="1" as="geometry">
            <mxPoint x="500" y="520" as="sourcePoint" />
            <mxPoint x="620" y="430" as="targetPoint" />
          </mxGeometry>
        </mxCell>
      </root>
    </mxGraphModel>
  </diagram>
</mxfile>
